<?xml version="1.0" encoding="UTF-8"?>
<svg id="_Слой_2" data-name="Слой 2" xmlns="http://www.w3.org/2000/svg" viewBox="0 0 1012.42 236.38">
  <defs>
    <style>
      .cls-1 {
        fill: #fff;
      }
    </style>
  </defs>
  <g id="Layer_1" data-name="Layer 1">
    <g>
      <g>
        <path d="m965.6,57.12h-59.92c-5.24,0-9.36-4.12-9.36-9.36s4.12-9.36,9.36-9.36h103V.94h-103c-25.84,0-46.82,20.97-46.82,46.82s20.97,46.82,46.82,46.82h59.92c5.24,0,9.36,4.12,9.36,9.36s-4.12,9.36-9.36,9.36h-103v37.45h103c26.03,0,46.82-20.97,46.82-46.82s-20.79-46.82-46.82-46.82"/>
        <path d="m838.3,47.75c0-25.84-20.6-46.82-46.82-46.82h-106.74v149.81h37.45v-56.18h40.45l32.4,56.18h43.26l-33.52-58.05c19.66-5.8,33.52-23.78,33.52-44.94m-46.82,9.36h-69.29v-18.73h69.29c5.24,0,9.36,4.12,9.36,9.36s-4.12,9.36-9.36,9.36"/>
        <path d="m271.68,85.21c0,16.85-13.11,29.96-29.96,29.96s-29.96-13.11-29.96-29.96V.94h-37.45v84.27c0,37.45,29.96,67.42,67.42,67.42s67.42-29.96,67.42-67.42V.94h-37.45v84.27Z"/>
        <path d="m588.87,0C546.36,0,512.09,34.27,512.09,76.78s34.27,76.78,76.78,76.78,76.78-34.27,76.78-76.78S631.38,0,588.87,0m0,116.1c-22.1,0-39.33-17.23-39.33-39.33s17.23-39.33,39.33-39.33,39.33,17.23,39.33,39.33-17.23,39.33-39.33,39.33"/>
        <polygon points="419.33 66.1 380.01 1.87 342.55 1.87 342.55 151.68 380.01 151.68 380.01 73.59 419.33 137.83 458.66 73.78 458.66 151.68 496.11 151.68 496.11 1.87 458.66 1.87 419.33 66.1"/>
        <path d="m153.56,47.75c0-25.84-20.6-46.82-46.82-46.82H0v149.81h37.45v-56.18h40.45l32.4,56.18h43.26l-33.52-58.05c19.66-5.8,33.52-23.78,33.52-44.94m-46.82,9.36H37.45v-18.73h69.29c5.24,0,9.36,4.12,9.36,9.36s-4.12,9.36-9.36,9.36"/>
      </g>
      <g>
        <path class="cls-1" d="m254.76,206.91c-1.67.95-2.99,2.29-3.98,4.03-.99,1.74-1.48,3.77-1.48,6.1s.51,4.37,1.53,6.13c1.02,1.76,2.38,3.1,4.08,4.03,1.7.93,3.55,1.4,5.56,1.4,3.19,0,5.74-.94,7.66-2.82,1.92-1.88,3.18-4.4,3.79-7.55l7.9,3.17c-1.11,4.62-3.33,8.28-6.66,10.96-3.33,2.69-7.58,4.03-12.74,4.03-3.98,0-7.45-.84-10.43-2.53-2.97-1.68-5.27-3.99-6.88-6.91-1.61-2.92-2.42-6.22-2.42-9.91s.86-6.91,2.58-9.86c1.72-2.96,4.08-5.28,7.09-6.96,3.01-1.68,6.36-2.53,10.05-2.53,3.3,0,6.19.56,8.68,1.67,2.49,1.11,4.51,2.61,6.05,4.49,1.54,1.88,2.58,4,3.12,6.37l-7.9,3.55c-.54-2.62-1.7-4.65-3.49-6.1-1.79-1.45-4-2.18-6.61-2.18-2.01,0-3.84.48-5.51,1.42Z"/>
        <path class="cls-1" d="m293.37,233.8c-3.05-1.72-5.45-4.07-7.23-7.04-1.77-2.97-2.66-6.22-2.66-9.73s.89-6.75,2.66-9.73c1.77-2.97,4.18-5.32,7.23-7.04,3.04-1.72,6.38-2.58,10-2.58s6.95.86,10,2.58c3.04,1.72,5.45,4.07,7.23,7.04,1.77,2.97,2.66,6.22,2.66,9.73s-.89,6.75-2.66,9.73c-1.77,2.97-4.18,5.32-7.23,7.04-3.05,1.72-6.38,2.58-10,2.58s-6.95-.86-10-2.58Zm15.69-6.85c1.72-.91,3.08-2.23,4.08-3.95,1-1.72,1.51-3.71,1.51-5.96s-.5-4.25-1.51-5.97c-1-1.72-2.36-3.04-4.08-3.95-1.72-.91-3.62-1.37-5.7-1.37s-3.98.46-5.7,1.37c-1.72.91-3.08,2.23-4.08,3.95-1,1.72-1.51,3.71-1.51,5.97s.5,4.25,1.51,5.96c1,1.72,2.36,3.04,4.08,3.95,1.72.91,3.62,1.37,5.7,1.37s3.98-.46,5.7-1.37Z"/>
        <path class="cls-1" d="m328.73,235.85v-37.62h28.7v7.79h-20.1v7.52h18.49v7.79h-18.49v14.51h-8.6Z"/>
        <path class="cls-1" d="m363.23,235.85v-37.62h28.7v7.79h-20.1v7.52h18.49v7.79h-18.49v14.51h-8.6Z"/>
        <path class="cls-1" d="m397.73,235.85v-37.62h29.07v7.79h-20.47v6.72h18.86v7.79h-18.86v7.52h21.01v7.79h-29.61Z"/>
        <path class="cls-1" d="m432.83,235.85v-37.62h29.07v7.79h-20.47v6.72h18.86v7.79h-18.86v7.52h21.01v7.79h-29.61Z"/>
        <path class="cls-1" d="m511.02,232.46c-.61,1.25-1.53,2.22-2.77,2.9-1.24.68-2.7,1.02-4.38,1.02-2.08,0-3.92-.68-5.54-2.04-2.51,1.36-5.48,2.04-8.92,2.04-2.15,0-4.05-.4-5.7-1.21-1.65-.81-2.92-1.91-3.82-3.31-.9-1.4-1.34-2.99-1.34-4.78,0-2.11.5-3.86,1.51-5.24,1-1.38,2.44-2.48,4.3-3.31-1.29-1.75-1.93-3.51-1.93-5.27,0-2.33.8-4.16,2.39-5.48,1.59-1.32,3.66-1.99,6.21-1.99,2.69,0,4.76.66,6.23,1.99,1.47,1.33,2.2,3.03,2.2,5.11,0,1.72-.46,3.28-1.37,4.67-.91,1.4-2.23,2.49-3.95,3.28l4.41,4.84c1.07-2.04,1.72-4.69,1.93-7.95l6.13.64c-.36,4.87-1.58,8.81-3.65,11.82.39.25.84.38,1.34.38.61,0,1.08-.12,1.42-.35.34-.23.67-.65.99-1.26l4.3,3.49Zm-24.53-3.04c.88.63,2.03.94,3.47.94,1.54,0,2.9-.22,4.08-.64l-6.02-6.88c-.97.43-1.68.97-2.15,1.61-.47.64-.7,1.43-.7,2.36,0,1.11.44,1.98,1.32,2.61Zm2.74-18c-.48.45-.73,1.05-.73,1.8,0,.5.12,1,.35,1.51.23.5.69,1.13,1.37,1.88,2.15-.82,3.22-2.02,3.22-3.6,0-.64-.21-1.18-.64-1.61-.43-.43-1.02-.64-1.77-.64s-1.32.22-1.8.67Z"/>
        <path class="cls-1" d="m560.95,198.23l-13.7,15.32,14.51,22.3h-9.94l-10.16-15.85-5.16,5.64v10.21h-8.6v-37.62h8.6v15.21l13.7-15.21h10.75Z"/>
        <path class="cls-1" d="m574.33,235.85h-8.6v-37.62h8.6v37.62Z"/>
        <path class="cls-1" d="m578.95,198.23h34.39v7.79h-12.9v29.83h-8.6v-29.83h-12.9v-7.79Z"/>
        <path class="cls-1" d="m628.68,206.91c-1.67.95-2.99,2.29-3.98,4.03-.99,1.74-1.48,3.77-1.48,6.1s.51,4.37,1.53,6.13c1.02,1.76,2.38,3.1,4.08,4.03,1.7.93,3.55,1.4,5.56,1.4,3.19,0,5.74-.94,7.66-2.82,1.92-1.88,3.18-4.4,3.79-7.55l7.9,3.17c-1.11,4.62-3.33,8.28-6.66,10.96-3.33,2.69-7.58,4.03-12.74,4.03-3.98,0-7.45-.84-10.43-2.53-2.97-1.68-5.27-3.99-6.88-6.91-1.61-2.92-2.42-6.22-2.42-9.91s.86-6.91,2.58-9.86c1.72-2.96,4.08-5.28,7.09-6.96,3.01-1.68,6.36-2.53,10.05-2.53,3.3,0,6.19.56,8.68,1.67,2.49,1.11,4.51,2.61,6.05,4.49,1.54,1.88,2.58,4,3.12,6.37l-7.9,3.55c-.54-2.62-1.7-4.65-3.49-6.1-1.79-1.45-4-2.18-6.61-2.18-2.01,0-3.84.48-5.51,1.42Z"/>
        <path class="cls-1" d="m684.06,235.85v-14.51h-16.66v14.51h-8.6v-37.62h8.6v15.32h16.66v-15.32h8.6v37.62h-8.6Z"/>
        <path class="cls-1" d="m699.54,235.85v-37.62h29.07v7.79h-20.47v6.72h18.86v7.79h-18.86v7.52h21.01v7.79h-29.61Z"/>
        <path class="cls-1" d="m756.99,235.85l-13.76-31.87v31.87h-8.6v-37.62h14.72l13.76,31.87v-31.87h8.6v37.62h-14.72Z"/>
      </g>
      <g>
        <g>
          <path class="cls-1" d="m588.87,0c-42.51,0-76.78,34.27-76.78,76.78s34.27,76.78,76.78,76.78,76.78-34.27,76.78-76.78S631.38,0,588.87,0Zm0,149.81c-20.22,0-38.39-8.05-51.69-21.35l10.68-10.49c-10.49-10.49-17.04-25.09-17.04-41.2,0-32.21,25.84-58.05,58.05-58.05,16.11,0,30.71,6.55,41.2,17.04l10.49-10.67c13.11,13.11,21.35,31.46,21.35,51.68,0,40.45-32.58,73.03-73.03,73.03Z"/>
          <path class="cls-1" d="m646.92,76.78c0-16.11-6.37-30.52-16.85-41.01l-10.67,10.49c-7.68-7.86-18.54-12.55-30.52-12.55-24.16,0-43.07,18.91-43.07,43.07,0,12.17,4.68,22.85,12.55,30.52l-10.49,10.67c10.3,10.3,24.91,16.85,41.01,16.85,32.21,0,58.05-25.84,58.05-58.05Zm-97.38,0c0-22.1,17.23-39.33,39.33-39.33s39.33,17.23,39.33,39.33-17.23,39.33-39.33,39.33-39.33-17.23-39.33-39.33Z"/>
        </g>
        <path class="cls-1" d="m458.66,1.87l-39.33,64.23L380.01,1.87h-37.45v149.81h37.45v-78.09l39.33,64.23,39.33-64.05v77.9h37.45V1.87h-37.45Zm33.71,146.07h-29.96l14.98-14.98V20.6l-14.98,39.7-43.07,70.41v-28.65l-49.81-81.46,6.74,49.25v78.09h-29.96l14.98-14.98V20.6h8.24l8.43-14.98,41.39,67.6v28.84l49.81-81.46h8.24l14.98-14.98v142.32Z"/>
        <g>
          <path class="cls-1" d="m153.56,47.75c0-25.84-20.6-46.82-46.82-46.82H0v149.81h37.45v-56.18h40.45l32.4,56.18h43.26l-33.52-58.05c19.66-5.8,33.52-23.78,33.52-44.94Zm-6.55,99.25h-32.96l7.12-14.98-32.77-56.18-6.74,14.98h-47.94v56.18H3.75l14.98-14.98V19.66h88.01c7.86,0,14.98,3.18,20.04,8.05l10.49-10.49c7.87,7.86,12.55,18.54,12.55,30.52,0,21.35-15.17,38.95-35.58,42.51l32.77,56.74Z"/>
          <path class="cls-1" d="m134.83,47.75c0-7.86-3-14.79-8.05-20.04l-10.67,10.67c-2.44-2.25-5.62-3.75-9.36-3.75H33.71v26.22l-14.98,14.98h88.01c15.73,0,28.09-12.36,28.09-28.09Zm-97.38,9.36v-18.73h69.29c5.24,0,9.36,4.12,9.36,9.36s-4.12,9.36-9.36,9.36H37.45Z"/>
        </g>
        <g>
          <path class="cls-1" d="m839.03,47.75c0-25.84-20.6-46.82-46.82-46.82h-106.74v149.81h37.45v-56.18h40.45l32.4,56.18h43.26l-33.52-58.05c19.66-5.8,33.52-23.78,33.52-44.94Zm-6.55,99.25h-32.96l7.12-14.98-32.77-56.18-6.74,14.98h-47.94v56.18h-29.96l14.98-14.98V19.66h88.01c7.86,0,14.98,3.18,20.04,8.05l10.49-10.49c7.87,7.86,12.55,18.54,12.55,30.52,0,21.35-15.17,38.95-35.58,42.51l32.77,56.74Z"/>
          <path class="cls-1" d="m820.31,47.75c0-7.86-3-14.79-8.05-20.04l-10.67,10.67c-2.44-2.25-5.62-3.75-9.36-3.75h-73.03v26.22l-14.98,14.98h88.01c15.73,0,28.09-12.36,28.09-28.09Zm-97.38,9.36v-18.73h69.29c5.24,0,9.36,4.12,9.36,9.36s-4.12,9.36-9.36,9.36h-69.29Z"/>
        </g>
        <path class="cls-1" d="m965.6,57.12h-59.93c-5.24,0-9.36-4.12-9.36-9.36s4.12-9.36,9.36-9.36h103V.94h-103c-25.84,0-46.82,20.97-46.82,46.82s20.97,46.82,46.82,46.82h59.93c5.24,0,9.36,4.12,9.36,9.36s-4.12,9.36-9.36,9.36h-103v37.45h103c26.03,0,46.82-20.97,46.82-46.82s-20.79-46.82-46.82-46.82Zm0,89.89h-99.25l14.98-14.98h84.27c15.73,0,28.09-12.36,28.09-28.09,0-7.86-3-14.79-8.05-20.04l-10.67,10.67c-2.43-2.25-5.62-3.74-9.36-3.74h-59.93c-11.98,0-22.66-4.87-30.52-12.73l10.67-10.49c-5.06-5.06-8.24-12.17-8.24-19.85,0-15.54,12.55-28.09,28.09-28.09h84.27l14.98-14.98v29.96h-99.25c-7.3,0-13.11,5.81-13.11,13.11,0,3.56,1.5,6.93,3.75,9.36l-10.49,10.49c5.06,5.06,11.98,8.24,19.85,8.24h59.93c7.86,0,14.98,3.18,20.04,8.05l10.49-10.49c7.86,7.86,12.55,18.54,12.55,30.52,0,23.97-19.1,43.07-43.07,43.07Z"/>
        <path class="cls-1" d="m241.72,148.88c-17.6,0-33.52-7.12-45.13-18.54l10.67-10.67c-8.8-8.62-14.23-20.79-14.23-34.46V19.66l14.98-14.98v80.52c0,9.36,3.75,17.79,9.74,23.97l-10.49,10.49c8.8,8.8,20.97,14.23,34.46,14.23,27.15,0,48.69-21.54,48.69-48.69V19.66l14.98-14.98v80.52c0,35.39-28.28,63.67-63.67,63.67m0,3.75c37.45,0,67.42-29.96,67.42-67.42V.94h-37.45v84.27c0,16.85-13.11,29.96-29.96,29.96s-29.96-13.11-29.96-29.96V.94h-37.45v84.27c0,37.45,29.96,67.42,67.42,67.42"/>
      </g>
    </g>
  </g>
</svg>