<svg width="1013" height="237" viewBox="0 0 1013 237" fill="none" xmlns="http://www.w3.org/2000/svg">
<g clip-path="url(#clip0_1_54)">
<path d="M254.76 206.91C253.09 207.86 251.77 209.2 250.78 210.94C249.79 212.68 249.3 214.71 249.3 217.04C249.3 219.37 249.81 221.41 250.83 223.17C251.85 224.93 253.21 226.27 254.91 227.2C256.61 228.13 258.46 228.6 260.47 228.6C263.66 228.6 266.21 227.66 268.13 225.78C270.05 223.9 271.31 221.38 271.92 218.23L279.82 221.4C278.71 226.02 276.49 229.68 273.16 232.36C269.83 235.05 265.58 236.39 260.42 236.39C256.44 236.39 252.97 235.55 249.99 233.86C247.02 232.18 244.72 229.87 243.11 226.95C241.5 224.03 240.69 220.73 240.69 217.04C240.69 213.35 241.55 210.13 243.27 207.18C244.99 204.22 247.35 201.9 250.36 200.22C253.37 198.54 256.72 197.69 260.41 197.69C263.71 197.69 266.6 198.25 269.09 199.36C271.58 200.47 273.6 201.97 275.14 203.85C276.68 205.73 277.72 207.85 278.26 210.22L270.36 213.77C269.82 211.15 268.66 209.12 266.87 207.67C265.08 206.22 262.87 205.49 260.26 205.49C258.25 205.49 256.42 205.97 254.75 206.91H254.76Z" fill="white"/>
<path d="M293.37 233.8C290.32 232.08 287.92 229.73 286.14 226.76C284.37 223.79 283.48 220.54 283.48 217.03C283.48 213.52 284.37 210.28 286.14 207.3C287.91 204.33 290.32 201.98 293.37 200.26C296.41 198.54 299.75 197.68 303.37 197.68C306.99 197.68 310.32 198.54 313.37 200.26C316.41 201.98 318.82 204.33 320.6 207.3C322.37 210.27 323.26 213.52 323.26 217.03C323.26 220.54 322.37 223.78 320.6 226.76C318.83 229.73 316.42 232.08 313.37 233.8C310.32 235.52 306.99 236.38 303.37 236.38C299.75 236.38 296.42 235.52 293.37 233.8ZM309.06 226.95C310.78 226.04 312.14 224.72 313.14 223C314.14 221.28 314.65 219.29 314.65 217.04C314.65 214.79 314.15 212.79 313.14 211.07C312.14 209.35 310.78 208.03 309.06 207.12C307.34 206.21 305.44 205.75 303.36 205.75C301.28 205.75 299.38 206.21 297.66 207.12C295.94 208.03 294.58 209.35 293.58 211.07C292.58 212.79 292.07 214.78 292.07 217.04C292.07 219.3 292.57 221.29 293.58 223C294.58 224.72 295.94 226.04 297.66 226.95C299.38 227.86 301.28 228.32 303.36 228.32C305.44 228.32 307.34 227.86 309.06 226.95Z" fill="white"/>
<path d="M328.73 235.85V198.23H357.43V206.02H337.33V213.54H355.82V221.33H337.33V235.84H328.73V235.85Z" fill="white"/>
<path d="M363.23 235.85V198.23H391.93V206.02H371.83V213.54H390.32V221.33H371.83V235.84H363.23V235.85Z" fill="white"/>
<path d="M397.73 235.85V198.23H426.8V206.02H406.33V212.74H425.19V220.53H406.33V228.05H427.34V235.84H397.73V235.85Z" fill="white"/>
<path d="M432.83 235.85V198.23H461.9V206.02H441.43V212.74H460.29V220.53H441.43V228.05H462.44V235.84H432.83V235.85Z" fill="white"/>
<path d="M511.02 232.46C510.41 233.71 509.49 234.68 508.25 235.36C507.01 236.04 505.55 236.38 503.87 236.38C501.79 236.38 499.95 235.7 498.33 234.34C495.82 235.7 492.85 236.38 489.41 236.38C487.26 236.38 485.36 235.98 483.71 235.17C482.06 234.36 480.79 233.26 479.89 231.86C478.99 230.46 478.55 228.87 478.55 227.08C478.55 224.97 479.05 223.22 480.06 221.84C481.06 220.46 482.5 219.36 484.36 218.53C483.07 216.78 482.43 215.02 482.43 213.26C482.43 210.93 483.23 209.1 484.82 207.78C486.41 206.46 488.48 205.79 491.03 205.79C493.72 205.79 495.79 206.45 497.26 207.78C498.73 209.11 499.46 210.81 499.46 212.89C499.46 214.61 499 216.17 498.09 217.56C497.18 218.96 495.86 220.05 494.14 220.84L498.55 225.68C499.62 223.64 500.27 220.99 500.48 217.73L506.61 218.37C506.25 223.24 505.03 227.18 502.96 230.19C503.35 230.44 503.8 230.57 504.3 230.57C504.91 230.57 505.38 230.45 505.72 230.22C506.06 229.99 506.39 229.57 506.71 228.96L511.01 232.45L511.02 232.46ZM486.49 229.42C487.37 230.05 488.52 230.36 489.96 230.36C491.5 230.36 492.86 230.14 494.04 229.72L488.02 222.84C487.05 223.27 486.34 223.81 485.87 224.45C485.4 225.09 485.17 225.88 485.17 226.81C485.17 227.92 485.61 228.79 486.49 229.42ZM489.23 211.42C488.75 211.87 488.5 212.47 488.5 213.22C488.5 213.72 488.62 214.22 488.85 214.73C489.08 215.23 489.54 215.86 490.22 216.61C492.37 215.79 493.44 214.59 493.44 213.01C493.44 212.37 493.23 211.83 492.8 211.4C492.37 210.97 491.78 210.76 491.03 210.76C490.28 210.76 489.71 210.98 489.23 211.43V211.42Z" fill="white"/>
<path d="M560.95 198.23L547.25 213.55L561.76 235.85H551.82L541.66 220L536.5 225.64V235.85H527.9V198.23H536.5V213.44L550.2 198.23H560.95Z" fill="white"/>
<path d="M574.33 235.85H565.73V198.23H574.33V235.85Z" fill="white"/>
<path d="M578.95 198.23H613.34V206.02H600.44V235.85H591.84V206.02H578.94V198.23H578.95Z" fill="white"/>
<path d="M628.68 206.91C627.01 207.86 625.69 209.2 624.7 210.94C623.71 212.68 623.22 214.71 623.22 217.04C623.22 219.37 623.73 221.41 624.75 223.17C625.77 224.93 627.13 226.27 628.83 227.2C630.53 228.13 632.38 228.6 634.39 228.6C637.58 228.6 640.13 227.66 642.05 225.78C643.97 223.9 645.23 221.38 645.84 218.23L653.74 221.4C652.63 226.02 650.41 229.68 647.08 232.36C643.75 235.05 639.5 236.39 634.34 236.39C630.36 236.39 626.89 235.55 623.91 233.86C620.94 232.18 618.64 229.87 617.03 226.95C615.42 224.03 614.61 220.73 614.61 217.04C614.61 213.35 615.47 210.13 617.19 207.18C618.91 204.22 621.27 201.9 624.28 200.22C627.29 198.54 630.64 197.69 634.33 197.69C637.63 197.69 640.52 198.25 643.01 199.36C645.5 200.47 647.52 201.97 649.06 203.85C650.6 205.73 651.64 207.85 652.18 210.22L644.28 213.77C643.74 211.15 642.58 209.12 640.79 207.67C639 206.22 636.79 205.49 634.18 205.49C632.17 205.49 630.34 205.97 628.67 206.91H628.68Z" fill="white"/>
<path d="M684.06 235.85V221.34H667.4V235.85H658.8V198.23H667.4V213.55H684.06V198.23H692.66V235.85H684.06Z" fill="white"/>
<path d="M699.54 235.85V198.23H728.61V206.02H708.14V212.74H727V220.53H708.14V228.05H729.15V235.84H699.54V235.85Z" fill="white"/>
<path d="M756.99 235.85L743.23 203.98V235.85H734.63V198.23H749.35L763.11 230.1V198.23H771.71V235.85H756.99Z" fill="white"/>
<path d="M588.87 0C546.36 0 512.09 34.27 512.09 76.78C512.09 119.29 546.36 153.56 588.87 153.56C631.38 153.56 665.65 119.29 665.65 76.78C665.65 34.27 631.38 0 588.87 0ZM588.87 149.81C568.65 149.81 550.48 141.76 537.18 128.46L547.86 117.97C537.37 107.48 530.82 92.88 530.82 76.77C530.82 44.56 556.66 18.72 588.87 18.72C604.98 18.72 619.58 25.27 630.07 35.76L640.56 25.09C653.67 38.2 661.91 56.55 661.91 76.77C661.91 117.22 629.33 149.8 588.88 149.8L588.87 149.81Z" fill="white"/>
<path d="M646.92 76.78C646.92 60.67 640.55 46.26 630.07 35.77L619.4 46.26C611.72 38.4 600.86 33.71 588.88 33.71C564.72 33.71 545.81 52.62 545.81 76.78C545.81 88.95 550.49 99.63 558.36 107.3L547.87 117.97C558.17 128.27 572.78 134.82 588.88 134.82C621.09 134.82 646.93 108.98 646.93 76.77L646.92 76.78ZM549.54 76.78C549.54 54.68 566.77 37.45 588.87 37.45C610.97 37.45 628.2 54.68 628.2 76.78C628.2 98.88 610.97 116.11 588.87 116.11C566.77 116.11 549.54 98.88 549.54 76.78Z" fill="white"/>
<path d="M458.66 1.87L419.33 66.1L380.01 1.87H342.56V151.68H380.01V73.59L419.34 137.82L458.67 73.77V151.67H496.12V1.87H458.67H458.66ZM492.37 147.94H462.41L477.39 132.96V20.6L462.41 60.3L419.34 130.71V102.06L369.53 20.6L376.27 69.85V147.94H346.31L361.29 132.96V20.6H369.53L377.96 5.62L419.35 73.22V102.06L469.16 20.6H477.4L492.38 5.62V147.94H492.37Z" fill="white"/>
<path d="M153.56 47.75C153.56 21.91 132.96 0.93 106.74 0.93H0V150.74H37.45V94.56H77.9L110.3 150.74H153.56L120.04 92.69C139.7 86.89 153.56 68.91 153.56 47.75ZM147.01 147H114.05L121.17 132.02L88.4 75.84L81.66 90.82H33.72V147H3.75L18.73 132.02V19.66H106.74C114.6 19.66 121.72 22.84 126.78 27.71L137.27 17.22C145.14 25.08 149.82 35.76 149.82 47.74C149.82 69.09 134.65 86.69 114.24 90.25L147.01 146.99V147Z" fill="white"/>
<path d="M134.83 47.75C134.83 39.89 131.83 32.96 126.78 27.71L116.11 38.38C113.67 36.13 110.49 34.63 106.75 34.63H33.71V60.85L18.73 75.83H106.74C122.47 75.83 134.83 63.47 134.83 47.74V47.75ZM37.45 57.11V38.38H106.74C111.98 38.38 116.1 42.5 116.1 47.74C116.1 52.98 111.98 57.1 106.74 57.1H37.45V57.11Z" fill="white"/>
<path d="M839.03 47.75C839.03 21.91 818.43 0.93 792.21 0.93H685.47V150.74H722.92V94.56H763.37L795.77 150.74H839.03L805.51 92.69C825.17 86.89 839.03 68.91 839.03 47.75ZM832.48 147H799.52L806.64 132.02L773.87 75.84L767.13 90.82H719.19V147H689.23L704.21 132.02V19.66H792.22C800.08 19.66 807.2 22.84 812.26 27.71L822.75 17.22C830.62 25.08 835.3 35.76 835.3 47.74C835.3 69.09 820.13 86.69 799.72 90.25L832.49 146.99L832.48 147Z" fill="white"/>
<path d="M820.31 47.75C820.31 39.89 817.31 32.96 812.26 27.71L801.59 38.38C799.15 36.13 795.97 34.63 792.23 34.63H719.2V60.85L704.22 75.83H792.23C807.96 75.83 820.32 63.47 820.32 47.74L820.31 47.75ZM722.93 57.11V38.38H792.22C797.46 38.38 801.58 42.5 801.58 47.74C801.58 52.98 797.46 57.1 792.22 57.1H722.93V57.11Z" fill="white"/>
<path d="M965.6 57.12H905.67C900.43 57.12 896.31 53 896.31 47.76C896.31 42.52 900.43 38.4 905.67 38.4H1008.67V0.940001H905.67C879.83 0.940001 858.85 21.91 858.85 47.76C858.85 73.61 879.82 94.58 905.67 94.58H965.6C970.84 94.58 974.96 98.7 974.96 103.94C974.96 109.18 970.84 113.3 965.6 113.3H862.6V150.75H965.6C991.63 150.75 1012.42 129.78 1012.42 103.93C1012.42 78.08 991.63 57.11 965.6 57.11V57.12ZM965.6 147.01H866.35L881.33 132.03H965.6C981.33 132.03 993.69 119.67 993.69 103.94C993.69 96.08 990.69 89.15 985.64 83.9L974.97 94.57C972.54 92.32 969.35 90.83 965.61 90.83H905.68C893.7 90.83 883.02 85.96 875.16 78.1L885.83 67.61C880.77 62.55 877.59 55.44 877.59 47.76C877.59 32.22 890.14 19.67 905.68 19.67H989.95L1004.93 4.69V34.65H905.68C898.38 34.65 892.57 40.46 892.57 47.76C892.57 51.32 894.07 54.69 896.32 57.12L885.83 67.61C890.89 72.67 897.81 75.85 905.68 75.85H965.61C973.47 75.85 980.59 79.03 985.65 83.9L996.14 73.41C1004 81.27 1008.69 91.95 1008.69 103.93C1008.69 127.9 989.59 147 965.62 147L965.6 147.01Z" fill="white"/>
<path d="M241.72 148.88C224.12 148.88 208.2 141.76 196.59 130.34L207.26 119.67C198.46 111.05 193.03 98.88 193.03 85.21V19.66L208.01 4.68V85.2C208.01 94.56 211.76 102.99 217.75 109.17L207.26 119.66C216.06 128.46 228.23 133.89 241.72 133.89C268.87 133.89 290.41 112.35 290.41 85.2V19.66L305.39 4.68V85.2C305.39 120.59 277.11 148.87 241.72 148.87M241.72 152.62C279.17 152.62 309.14 122.66 309.14 85.2V0.940001H271.69V85.21C271.69 102.06 258.58 115.17 241.73 115.17C224.88 115.17 211.77 102.06 211.77 85.21V0.940001H174.32V85.21C174.32 122.66 204.28 152.63 241.74 152.63" fill="white"/>
</g>
<defs>
<clipPath id="clip0_1_54">
<rect width="1012.42" height="236.38" fill="white"/>
</clipPath>
</defs>
</svg>
