<svg width="400" height="400" viewBox="0 0 400 400" fill="none" xmlns="http://www.w3.org/2000/svg">
<rect width="400" height="400" fill="#004746"/>
<path d="M278.56 173.82C278.56 147.98 257.96 127 231.74 127H125V276.81H162.45V220.63H202.9L235.3 276.81H278.56L245.04 218.76C264.7 212.96 278.56 194.98 278.56 173.82ZM272.01 273.07H239.05L246.17 258.09L213.4 201.91L206.66 216.89H158.72V273.07H128.75L143.73 258.09V145.73H231.74C239.6 145.73 246.72 148.91 251.78 153.78L262.27 143.29C270.14 151.15 274.82 161.83 274.82 173.81C274.82 195.16 259.65 212.76 239.24 216.32L272.01 273.06V273.07Z" fill="white"/>
<path d="M259.83 173.82C259.83 165.96 256.83 159.03 251.78 153.78L241.11 164.45C238.67 162.2 235.49 160.7 231.75 160.7H158.71V186.92L143.73 201.9H231.74C247.47 201.9 259.83 189.54 259.83 173.81V173.82ZM162.45 183.18V164.45H231.74C236.98 164.45 241.1 168.57 241.1 173.81C241.1 179.05 236.98 183.17 231.74 183.17H162.45V183.18Z" fill="white"/>
</svg>
